<?xml version="1.0" encoding="utf-8"?>
<!-- Generator: Adobe Illustrator 23.0.4, SVG Export Plug-In . SVG Version: 6.00 Build 0)  -->
<svg version="1.1" xmlns="http://www.w3.org/2000/svg" xmlns:xlink="http://www.w3.org/1999/xlink" x="0px" y="0px"
	 viewBox="0 0 100 100" style="enable-background:new 0 0 100 100;" xml:space="preserve">
<style type="text/css">
	.st0{clip-path:url(#SVGID_2_);}
	.st1{fill:#77787B;}
	.st2{fill:#A7A9AC;}
	.st3{fill:#67686B;}
	.st4{fill:#565759;}
	.st5{fill:#BABCBE;}
	.st6{fill:#515254;}
	.st7{fill:#9B9DA0;}
</style>
<g id="Layer_4">
	<g>
		<g>
			<defs>
				<polygon id="SVGID_1_" points="66.05,17.76 79.55,23.34 90.68,52.71 79.55,77.43 52.51,88.63 39,83.05 33.38,69.51 38.97,56 
					66.01,44.8 71.63,31.26 				"/>
			</defs>
			<clipPath id="SVGID_2_">
				<use xlink:href="#SVGID_1_"  style="overflow:visible;"/>
			</clipPath>
			<g class="st0">
				<g>
					<defs>
						<rect id="SVGID_3_" x="28.38" y="12.75" width="67.3" height="80.87"/>
					</defs>
					<clipPath id="SVGID_4_">
						<use xlink:href="#SVGID_3_"  style="overflow:visible;"/>
					</clipPath>
					<g style="clip-path:url(#SVGID_4_);">
						
							<image style="overflow:visible;" width="141" height="170" xlink:href="B915486E741D32CD.jpg"  transform="matrix(0.48 0 0 0.48 28.32 12.48)">
						</image>
					</g>
				</g>
			</g>
		</g>
	</g>
</g>
<g id="Layer_5">
	<polygon class="st1" points="61.07,15.73 20.48,21.31 47.53,10.11 	"/>
	<polygon class="st2" points="9.28,48.36 33.99,53.98 28.41,67.48 	"/>
	<polygon class="st3" points="20.48,75.4 28.41,67.48 9.28,48.36 	"/>
	<polygon class="st1" points="34.03,81.02 28.41,67.48 20.48,75.4 	"/>
	<polygon class="st1" points="20.48,21.31 33.99,53.98 9.28,48.36 	"/>
	<polygon class="st4" points="66.65,29.23 43.86,33.43 61.07,15.73 	"/>
	<polygon class="st5" points="61.03,42.78 66.65,29.23 43.86,33.43 	"/>
	<polygon class="st1" points="33.99,53.98 43.86,33.43 61.03,42.78 	"/>
	<polygon class="st6" points="20.48,21.31 43.86,33.43 33.99,53.98 	"/>
	<polygon class="st7" points="61.07,15.73 43.86,33.43 20.48,21.31 	"/>
</g>
</svg>
